<svg id="Layer_1" xmlns="http://www.w3.org/2000/svg" viewBox="0 0 512 512">
  <path d="M405.33 128c29.397 0 53.333-23.936 53.333-53.333s-23.915-53.333-53.333-53.333c-29.397 0-53.333 23.936-53.333 53.333S375.933 128 405.33 128zm0-85.333c17.643 0 32 14.357 32 32s-14.336 32-32 32c-17.643 0-32-14.357-32-32s14.38-32 32-32zM498.237 305.387l-13.675-109.312c-3.307-26.645-26.07-46.72-52.907-46.72h-52.672c-5.93 0-11.904 1.045-17.77 3.136-5.548 1.964-8.45 8.065-6.486 13.612 1.984 5.547 8.064 8.47 13.61 6.485 3.564-1.26 7.148-1.9 10.646-1.9h52.672c16.107 0 29.74 12.054 31.744 28.033l13.674 109.312c.384 3.072-.533 6.06-2.58 8.384s-4.886 3.605-8 3.605h-7.83c-5.61 0-10.24 4.31-10.645 9.9l-9.964 139.435h-65.472l-7.68-107.456c-.405-5.868-5.568-10.476-11.392-9.878-5.867.405-10.304 5.525-9.877 11.392l8.384 117.355c.426 5.567 5.076 9.898 10.644 9.898h85.333c5.59 0 10.24-4.33 10.624-9.877l9.964-139.498c8.405-.555 16.277-4.395 21.888-10.752 6.08-6.892 8.917-16.044 7.765-25.153zM158.333 354.453c-5.952-.555-10.965 4.01-11.392 9.877l-7.508 105.003H73.938l-9.94-139.435C63.59 324.33 58.94 320 53.33 320H45.5c-3.114 0-5.95-1.28-8-3.605-2.047-2.325-2.964-5.29-2.58-8.384L48.595 198.7c1.984-15.98 15.616-28.033 31.744-28.033h52.67c2.39 0 4.93.363 8.044 1.195 5.696 1.408 11.54-1.92 13.035-7.616 1.492-5.696-1.92-11.54-7.617-13.035-4.928-1.28-9.195-1.876-13.483-1.876H80.338c-26.837 0-49.58 20.075-52.907 46.72l-13.673 109.31c-1.13 9.11 1.685 18.262 7.765 25.153 5.61 6.357 13.483 10.197 21.888 10.752l9.963 139.498c.405 5.568 5.056 9.9 10.624 9.9h85.333c5.59 0 10.24-4.332 10.645-9.9l8.213-114.923c.427-5.866-4.01-10.965-9.855-11.392zM106.663 128c29.397 0 53.333-23.936 53.333-53.333s-23.915-53.333-53.333-53.333c-29.397 0-53.333 23.936-53.333 53.333S77.266 128 106.663 128zm0-85.333c17.643 0 32 14.357 32 32s-14.336 32-32 32c-17.62 0-32-14.357-32-32s14.38-32 32-32z"/>
  <path d="M349.927 303.723L335.783 179.82c-3.35-29.548-26.752-51.82-54.4-51.82H226.92c-27.606 0-50.988 22.272-54.358 51.82l-14.144 123.903c-1.173 10.368 2.027 20.672 8.768 28.224 5.824 6.507 13.525 10.304 21.91 10.773l11.775 159.403c.406 5.568 5.057 9.877 10.625 9.877h85.333c5.59 0 10.24-4.31 10.624-9.877l11.776-159.403c8.363-.47 16.085-4.245 21.91-10.773 6.784-7.574 9.963-17.856 8.79-28.224zm-24.66 14.016c-1.238 1.364-3.884 3.69-7.81 3.69h-8.127c-5.59 0-10.24 4.31-10.645 9.877l-11.755 159.36h-65.515l-11.733-159.36c-.427-5.568-5.056-9.877-10.645-9.877h-8.107c-3.904 0-6.57-2.325-7.808-3.69-2.71-3.052-3.99-7.276-3.5-11.606l14.145-123.904c2.133-18.752 16.405-32.896 33.195-32.896h54.464c16.768 0 31.04 14.144 33.195 32.896l14.145 123.904c.49 4.33-.79 8.554-3.5 11.605zM254.162 106.667c29.397 0 53.333-23.936 53.333-53.333S283.58 0 254.162 0c-29.397 0-53.333 23.936-53.333 53.333s23.935 53.334 53.332 53.334zm0-85.334c17.643 0 32 14.357 32 32s-14.357 32-32 32-32-14.357-32-32c0-17.642 14.38-32 32-32z"/>
</svg>