        <svg  id="Layer_1" xmlns="http://www.w3.org/2000/svg" viewBox="0 0 496 496">
          <path d="M351.4 148.896C365.832 142.856 376 128.6 376 112V92.84c0-20.744-10.304-40-27.56-51.504-12.8-8.52-20.44-22.8-20.44-38.176V0h-16v3.16c0 20.744 10.304 40 27.56 51.504 12.8 8.52 20.44 22.8 20.44 38.176V112c0 13.232-10.768 24-24 24h-8V96h-16v76c0 6.616-5.384 12-12 12s-12-5.384-12-12v-20h-16v12c0 6.616-5.384 12-12 12s-12-5.384-12-12v-12h-16v12c0 6.616-5.384 12-12 12s-12-5.384-12-12v-12h-16v4c0 6.616-5.384 12-12 12s-12-5.384-12-12V95.32c0-13.808 3.76-27.36 10.856-39.2C187.456 41.792 192 25.384 192 8.68V0h-16v8.68c0 13.808-3.76 27.36-10.856 39.2C156.544 62.208 152 78.616 152 95.32V144h-13.984l-28.232 96H40v256h416V240h-74.24l-30.36-91.104zM180 184c6.048 0 11.656-1.928 16.24-5.2 4.944 7.92 13.752 13.2 23.76 13.2 7.832 0 14.912-3.224 20-8.424 5.088 5.2 12.168 8.424 20 8.424 6.048 0 11.656-1.928 16.24-5.2 4.944 7.92 13.752 13.2 23.76 13.2 8.48 0 16-3.872 21.144-9.848l-8.8 49.848H182.24l-14.768-59.096c3.784 1.912 8 3.096 12.528 3.096zm-32.304-16.224L165.76 240h-39.304l21.24-72.224zM360 480H56V256h49.072l-8.744 29.744 15.344 4.512L121.752 256h187.776l-5.4 30.608 15.752 2.784L325.768 256H360v224zm-31.408-240l12.568-71.216L364.904 240h-36.312zM416 256h24v212.688l-24-24V256zm12.688 224h-41.376L408 459.312 428.688 480zM400 444.688l-24 24V256h24v188.688z"/>
          <path d="M328 448h16v16h-16zM296 448h16v16h-16zM264 448h16v16h-16zM328 416h16v16h-16zM296 416h16v16h-16zM328 384h16v16h-16zM448 144h16v16h-16zM433.35 150.03l11.314 11.315-11.314 11.313-11.314-11.313zM416 176h16v16h-16zM433.357 195.317l11.313 11.313-11.313 11.314-11.314-11.314zM448 208h16v16h-16zM478.622 217.947l-11.314-11.314 11.314-11.314 11.314 11.313zM480 176h16v16h-16zM478.604 150.025l11.313 11.313-11.313 11.314-11.314-11.314zM32 40h16v16H32zM17.378 68.686L6.065 57.372 17.378 46.06 28.692 57.37zM0 72h16v16H0zM17.373 113.937L6.06 102.623 17.372 91.31l11.313 11.313zM32 104h16v16H32zM51.31 102.627l11.314-11.313 11.313 11.313-11.313 11.314zM64 72h16v16H64zM62.622 46.063l11.314 11.313L62.622 68.69 51.308 57.376zM72 136h16v16H72zM57.365 142.05l11.314 11.314-11.315 11.314-11.313-11.314zM40 168h16v16H40zM57.372 187.305l11.313 11.314-11.313 11.313-11.314-11.314zM72 200h16v16H72zM102.622 209.94l-11.314-11.313 11.314-11.313 11.313 11.313zM104 168h16v16h-16zM102.617 142.048l11.313 11.313-11.313 11.315-11.314-11.314zM408 0h16v16h-16zM393.358 6.074l11.314 11.313L393.358 28.7l-11.313-11.313zM376 32h16v16h-16zM393.366 73.933L382.053 62.62l11.313-11.314L404.68 62.62zM408 64h16v16h-16zM438.624 51.293l11.313 11.314-11.313 11.313-11.314-11.313zM440 32h16v16h-16zM438.628 6.1l11.313 11.313-11.312 11.313-11.314-11.313z"/>
        </svg>