<svg id="Capa_1" xmlns="http://www.w3.org/2000/svg" viewBox="0 0 455 455">
  <path d="M407.5 0h-360C21.31 0 0 21.31 0 47.5v360C0 433.69 21.31 455 47.5 455h360c26.19 0 47.5-21.31 47.5-47.5v-360C455 21.31 433.69 0 407.5 0zM440 47.5V140H305.832c-20.803-18.643-48.264-30-78.332-30-30.067 0-57.528 11.357-78.33 30H125V15h282.5c17.92 0 32.5 14.58 32.5 32.5zM227.5 125c56.52 0 102.5 45.98 102.5 102.5S284.02 330 227.5 330 125 284.02 125 227.5 170.98 125 227.5 125zM90 140V15h20v125H90zm-35 0V15h20v125H55zM40 15.883V140H15V47.5c0-15.34 10.685-28.22 25-31.617zM407.5 440h-360C29.58 440 15 425.42 15 407.5V155h120.094C119.382 174.983 110 200.167 110 227.5c0 64.79 52.71 117.5 117.5 117.5 64.79 0 117.5-52.71 117.5-117.5 0-27.333-9.382-52.517-25.094-72.5H440v252.5c0 17.92-14.58 32.5-32.5 32.5z"/>
  <path d="M227.5 305c42.733 0 77.5-34.766 77.5-77.5S270.233 150 227.5 150c-42.734 0-77.5 34.766-77.5 77.5s34.766 77.5 77.5 77.5zm0-140c34.463 0 62.5 28.038 62.5 62.5S261.963 290 227.5 290c-34.462 0-62.5-28.038-62.5-62.5s28.038-62.5 62.5-62.5z"/>
  <path d="M227.5 274.98c12.7 0 24.63-4.934 33.588-13.893 13.73-13.73 17.712-34.187 10.14-52.112-1.61-3.817-6.015-5.602-9.826-3.99-3.815 1.61-5.603 6.01-3.99 9.826 5.184 12.275 2.464 26.276-6.93 35.67-6.127 6.126-14.288 9.5-22.98 9.5s-16.855-3.374-22.982-9.5c-2.93-2.93-7.678-2.93-10.606 0-2.93 2.93-2.93 7.678 0 10.606 8.958 8.96 20.886 13.895 33.586 13.895zM337.5 115h30c4.143 0 7.5-3.358 7.5-7.5s-3.357-7.5-7.5-7.5H345V55h55v45h-2.5c-4.143 0-7.5 3.358-7.5 7.5s3.357 7.5 7.5 7.5h10c4.143 0 7.5-3.358 7.5-7.5v-60c0-4.142-3.357-7.5-7.5-7.5h-70c-4.143 0-7.5 3.358-7.5 7.5v60c0 4.142 3.357 7.5 7.5 7.5z"/>
</svg>